<?xml version="1.0" standalone="no"?>
<!DOCTYPE svg PUBLIC "-//W3C//DTD SVG 20010904//EN"
 "http://www.w3.org/TR/2001/REC-SVG-20010904/DTD/svg10.dtd">
<svg version="1.0" xmlns="http://www.w3.org/2000/svg"
 width="1280.000000pt" height="1280.000000pt" viewBox="0 0 1280.000000 1280.000000"
 preserveAspectRatio="xMidYMid meet">
<metadata>
Created by potrace 1.11, written by Peter Selinger 2001-2013
</metadata>
<g transform="translate(0.000000,1280.000000) scale(0.100000,-0.100000)"
fill="#000000" stroke="none">
<path d="M6437 9646 c-15 -8 -29 -15 -30 -14 -6 3 -214 -66 -226 -76 -8 -6
-17 -10 -20 -9 -6 3 -119 -31 -156 -47 -11 -5 -76 -26 -145 -49 -69 -22 -142
-47 -162 -56 -21 -8 -38 -12 -38 -9 0 4 -6 2 -12 -3 -10 -7 -102 -40 -138 -48
-3 -1 -18 -7 -35 -14 -16 -7 -37 -14 -45 -15 -8 -1 -22 -5 -30 -9 -8 -3 -64
-22 -125 -42 -60 -20 -119 -40 -130 -45 -46 -19 -115 -41 -141 -46 -15 -3 -34
-9 -43 -13 -14 -8 -368 -128 -396 -135 -12 -3 -28 -9 -75 -25 -19 -7 -75 -26
-125 -42 -49 -17 -99 -34 -110 -39 -18 -8 -62 -23 -75 -25 -3 0 -30 -9 -60
-19 -30 -10 -62 -20 -70 -22 -8 -3 -15 -4 -16 -2 0 2 -7 -2 -15 -8 -12 -10
-32 -17 -84 -30 -5 -1 -50 -17 -100 -34 -49 -18 -94 -33 -100 -35 -5 -1 -19
-5 -30 -9 -11 -5 -38 -15 -60 -23 -22 -8 -49 -17 -60 -19 -11 -2 -31 -8 -45
-13 -31 -11 -58 -20 -68 -22 -4 -1 -29 -10 -57 -21 -27 -11 -54 -21 -60 -22
-38 -10 -71 -20 -80 -25 -5 -3 -12 -6 -15 -7 -5 -1 -12 -3 -85 -28 -27 -10
-54 -19 -60 -20 -5 -2 -17 -6 -25 -9 -34 -13 -176 -59 -190 -62 -8 -2 -17 -4
-20 -5 -3 -1 -8 -2 -12 -1 -5 0 -8 -4 -8 -11 0 -6 -2 -9 -5 -6 -3 3 -89 -23
-190 -57 -101 -35 -186 -61 -189 -57 -3 3 -6 1 -6 -4 0 -6 -24 -16 -52 -23
-29 -8 -57 -16 -62 -19 -14 -8 -349 -122 -363 -124 -24 -3 -12 -13 45 -41 58
-28 184 -95 282 -150 108 -61 215 -118 232 -124 10 -3 18 -10 18 -15 0 -5 5
-6 10 -3 6 3 10 1 10 -5 0 -6 4 -9 9 -6 5 4 11 3 13 -1 1 -5 28 -21 58 -37
117 -61 143 -76 155 -86 6 -5 15 -7 18 -3 4 3 7 1 7 -6 0 -7 4 -9 10 -6 6 3
10 3 10 -2 0 -4 10 -13 23 -19 43 -20 192 -99 197 -104 3 -3 19 -12 35 -20 17
-8 59 -31 95 -51 36 -20 99 -54 140 -76 41 -22 92 -50 113 -62 21 -12 70 -38
108 -58 74 -39 70 -32 55 -109 -19 -95 -21 -227 -10 -869 l6 -370 78 0 78 0 4
55 c2 30 2 165 -1 300 -8 498 -6 849 5 860 8 8 23 5 55 -13 24 -13 80 -44 124
-67 44 -24 112 -61 150 -82 39 -22 78 -42 88 -45 9 -3 17 -10 17 -15 0 -5 4
-7 9 -3 5 3 12 1 16 -4 3 -5 31 -22 63 -37 31 -15 59 -29 62 -33 3 -3 25 -17
50 -30 161 -84 196 -104 204 -111 4 -5 10 -35 12 -67 2 -32 6 -89 9 -128 3
-38 7 -106 10 -150 3 -44 7 -107 10 -140 3 -33 8 -94 10 -135 2 -41 7 -104 9
-140 3 -36 8 -99 12 -140 3 -40 8 -108 10 -150 3 -41 7 -95 9 -120 10 -112 17
-235 20 -350 2 -69 4 -125 5 -125 1 0 3 -18 5 -40 1 -22 6 -53 10 -70 3 -16 8
-43 10 -60 6 -57 53 -235 83 -312 11 -29 17 -54 14 -57 -3 -4 0 -6 7 -6 7 0 9
-4 6 -10 -3 -5 -1 -10 4 -10 6 0 10 -3 9 -7 -1 -5 5 -21 12 -38 7 -16 13 -33
12 -37 -1 -5 3 -8 8 -8 6 0 10 -6 10 -13 0 -20 84 -138 133 -187 57 -57 63
-62 118 -91 24 -13 47 -28 50 -32 3 -5 8 -8 10 -6 2 1 33 -11 69 -28 140 -65
209 -95 270 -118 25 -10 60 -24 78 -32 18 -8 40 -16 50 -18 9 -3 58 -19 107
-36 50 -17 101 -33 114 -35 13 -3 33 -10 43 -15 11 -6 22 -8 25 -5 4 3 12 1
20 -5 7 -6 13 -9 13 -6 0 3 15 1 33 -5 17 -5 41 -11 52 -13 11 -1 38 -7 60
-13 22 -6 56 -13 75 -16 19 -3 44 -7 55 -10 17 -3 67 -10 155 -22 14 -2 54 -6
89 -9 35 -3 68 -8 74 -12 6 -3 7 -1 3 5 -5 9 -1 10 16 4 39 -15 422 -5 538 13
14 2 45 6 70 10 88 13 105 16 120 20 8 2 31 7 50 10 19 3 62 13 95 22 33 8 70
15 83 15 12 0 22 4 22 9 0 5 9 9 20 9 11 0 81 21 157 46 76 25 143 47 148 48
6 1 16 5 23 9 6 5 12 5 12 0 0 -4 4 -2 8 4 4 7 17 14 27 16 11 2 37 11 58 20
20 9 38 16 40 16 8 0 176 86 197 101 14 10 30 19 35 20 10 2 176 109 185 120
3 3 21 17 40 30 41 28 124 111 160 160 14 18 30 38 35 44 16 17 42 60 43 70 0
5 4 12 9 15 14 10 42 81 57 146 17 69 28 162 31 256 1 36 4 69 7 75 10 15 0
324 -16 529 -2 33 -7 101 -11 150 -3 50 -8 115 -10 145 -2 30 -7 96 -10 145
-2 50 -7 113 -10 140 -4 50 -12 157 -20 290 -2 39 -5 70 -6 70 0 0 -2 29 -4
65 -7 118 -14 214 -20 277 -5 54 -3 65 15 83 11 11 27 20 35 20 8 0 15 5 15
10 0 6 7 10 15 10 8 0 15 5 15 12 0 6 3 9 6 6 3 -4 22 5 41 18 20 13 42 24 49
24 8 0 14 4 14 8 0 5 17 17 38 29 46 25 85 48 185 107 43 25 82 46 87 46 6 0
10 4 10 9 0 5 16 15 35 22 19 7 35 16 35 20 0 4 14 12 30 18 17 5 30 15 30 20
0 6 8 11 19 11 10 0 24 7 31 15 7 8 18 15 25 15 8 0 15 4 17 9 2 5 10 11 18
13 8 2 17 6 20 9 3 4 32 21 65 39 33 18 67 39 75 45 8 7 35 23 60 36 25 13 47
27 50 30 3 3 10 8 15 10 9 4 181 103 243 140 28 17 91 53 127 73 11 6 39 24
62 39 24 15 44 27 47 27 2 0 46 25 97 56 52 31 108 64 124 73 40 22 323 189
355 209 14 9 27 17 30 17 11 1 230 136 235 146 4 5 3 9 -2 8 -4 -1 -10 0 -13
1 -3 1 -12 3 -20 5 -8 1 -35 9 -60 16 -25 7 -47 13 -50 14 -3 0 -32 9 -65 19
-33 10 -60 17 -60 17 0 -1 -27 8 -60 19 -32 11 -68 22 -80 25 -11 2 -49 13
-85 24 -93 28 -313 93 -325 96 -5 1 -17 5 -25 8 -24 9 -90 29 -103 31 -7 1
-18 5 -24 9 -7 5 -13 6 -13 2 0 -3 -8 -1 -18 4 -11 6 -30 12 -43 15 -13 2 -76
20 -139 39 -170 52 -204 61 -217 60 -7 0 -13 4 -13 10 0 6 -3 8 -6 5 -3 -4
-21 0 -40 8 -19 8 -34 12 -34 9 0 -3 -9 -1 -21 5 -11 6 -30 13 -42 16 -21 4
-125 34 -257 76 -36 11 -72 22 -80 23 -8 2 -46 13 -85 25 -38 12 -77 23 -85
24 -8 2 -22 6 -30 9 -19 8 -489 147 -513 152 -9 2 -22 7 -27 10 -5 3 -18 8
-27 10 -43 8 -106 26 -211 58 -62 20 -116 36 -120 37 -4 1 -17 6 -30 11 -13 5
-31 9 -41 9 -10 0 -21 3 -25 7 -3 4 -12 8 -19 9 -7 1 -32 7 -57 15 -25 7 -49
13 -55 15 -5 1 -62 18 -124 38 -63 19 -119 33 -123 30 -4 -3 -8 0 -8 5 0 6 -9
11 -20 11 -11 0 -28 4 -38 9 -14 7 -88 29 -222 66 -8 2 -62 18 -120 36 -58 17
-109 32 -115 34 -10 2 -34 10 -70 24 -11 5 -28 7 -37 5 -10 -1 -18 2 -18 7 0
5 -3 8 -7 7 -5 -1 -35 6 -68 16 -33 10 -64 19 -70 21 -5 1 -17 5 -25 8 -22 8
-187 56 -255 74 -33 9 -62 19 -65 22 -15 18 -113 23 -143 7z"/>
<path d="M3835 5599 c-16 -5 -42 -10 -57 -11 -16 -1 -28 -5 -28 -8 0 -4 -13
-8 -30 -9 -59 -3 -70 -5 -70 -13 0 -4 -3 -7 -7 -7 -5 1 -18 1 -31 0 -22 -1
-23 -4 -18 -43 7 -49 12 -100 21 -178 3 -30 8 -71 10 -90 3 -19 7 -67 9 -107
3 -40 6 -76 9 -80 3 -4 8 -42 11 -83 11 -121 13 -132 23 -139 11 -7 10 -381
-1 -399 -4 -7 -2 -12 4 -12 6 0 8 -5 4 -11 -3 -6 -8 -59 -10 -117 -4 -144 -20
-419 -30 -532 -3 -30 -7 -82 -9 -115 -2 -33 -7 -98 -11 -145 -7 -91 -9 -106
-19 -245 -3 -49 -8 -106 -10 -125 -2 -19 -7 -91 -10 -159 -3 -68 -8 -128 -11
-132 -3 -5 0 -9 6 -9 6 0 8 -5 4 -12 -5 -7 -9 -67 -11 -133 -3 -113 -1 -123
24 -175 69 -141 212 -193 374 -136 73 26 124 60 182 121 37 40 92 138 103 185
13 52 5 314 -12 392 -2 12 -7 43 -9 68 -7 57 -14 118 -20 150 -2 14 -7 41 -9
60 -3 19 -8 46 -11 60 -3 14 -7 45 -10 70 -2 25 -7 56 -10 70 -2 14 -7 41 -11
60 -3 19 -8 46 -11 60 -2 14 -6 41 -8 60 -2 19 -4 35 -5 35 -2 0 -10 37 -14
70 -3 17 -5 30 -6 30 -1 0 -3 11 -5 25 -2 14 -6 39 -9 55 -2 17 -7 46 -10 65
-3 19 -8 46 -11 60 -3 14 -8 41 -11 60 -2 19 -11 71 -20 115 -8 44 -17 98 -20
120 -9 58 -10 66 -18 105 -4 19 -8 46 -10 60 -3 24 -9 56 -22 125 -3 17 -8 48
-10 70 -3 22 -8 47 -11 55 -7 20 -10 45 -17 160 -4 52 -8 109 -11 125 -8 61
-17 131 -20 170 -4 58 -15 146 -20 175 -3 14 -7 52 -10 85 -4 58 -11 105 -17
110 -2 1 -16 -2 -33 -6z"/>
</g>
</svg>
